# Alias OBJ Model File
# Exported from SketchUp, (c) 2000-2012 Trimble Navigation Limited
# File units = centimeters

mtllib 100RibuStacked.mtl

g Mesh1 Model

usemtl _1
v 12.2553 0 -5.58978
vt 7 -11
vn 0 0 -1
v -12.2553 0 -5.58978
vt 6 -11
v -12.2553 2.208 -5.58978
v 12.2553 2.208 -5.58978
f 1/1/1 2/2/1 3/2/1 4/1/1 

v -12.2553 0 5.58978
vt 6 -12
vn 0 -1 -0
v 12.2553 0 5.58978
vt 7 -12
f 5/3/2 2/2/2 1/1/2 6/4/2 

vn -1 0 -0
v -12.2553 2.208 5.58978
f 2/2/3 5/3/3 7/3/3 3/2/3 

vn 0 0 1
v 12.2553 2.208 5.58978
f 6/4/4 8/4/4 7/3/4 5/3/4 

vn 1 0 -0
f 6/4/5 1/1/5 4/1/5 8/4/5 

vn 0 1 -0
f 7/3/6 8/4/6 4/1/6 3/2/6 

